<svg xmlns="http://www.w3.org/2000/svg" version="1.1" xmlns:xlink="http://www.w3.org/1999/xlink" xmlns:svgjs="http://svgjs.dev/svgjs" viewBox="0 0 5.812761503811643 4.905368321616987"><g transform="matrix(0.8459652617793488,0,0,0.8459652617793488,2.909554822690177,3.8464926499729435)"><g transform="matrix(1,0,0,1,0,0)"><path d=" M -1.6879091769282168 -1.5555391810664418 L -2.025028448129832 -1.3804032424801775 L -1.7191267613203447 -1.3367551267463877 L -1.7468129447631369 -1.1427203998381046 L -2.444743977775074 -1.242305906609372 L -2.417057794332282 -1.4363406335176554 L -2.1161059730051486 -1.393398797973733 L -2.386122722016101 -1.6531447416447678 L -2.354198857434106 -1.8768786614471762 L -2.0522133722761993 -1.5721660644743176 L -1.6544314959285142 -1.7901628049300293 L -1.6879091769282168 -1.5555391810664418 M -1.4766471384567976 -2.3012261137137844 L -1.6118712036385705 -2.0909537850642073 L -1.5356999903673945 -1.9967893211258563 L -1.6471246200771752 -1.823524922318605 L -2.10108224786212 -2.421016739982969 L -1.9788396929377972 -2.6111029250821867 L -1.247402283399855 -2.445089925806754 L -1.359367809370363 -2.2709844376849047 L -1.4766471384567976 -2.3012261137137844 M -1.6293144524221712 -2.341147176407531 L -1.8621909319658443 -2.400548735943836 L -1.710989787791962 -2.2141426899031864 L -1.6293144524221712 -2.341147176407531 M -0.8222426230177462 -3.5224834384551986 L -0.4788192464902682 -2.906784336251479 L -0.6499923302235009 -2.8113077663232726 L -0.8394840940095845 -3.1510339376101473 L -0.7661454941853373 -2.746520093871989 L -0.9093719520029401 -2.666631535360633 L -1.2173515878810532 -2.9437029050190384 L -1.02639844802464 -2.6013567375525732 L -1.1975715317578726 -2.5058801676243663 L -1.5409949082853505 -3.1215792698280858 L -1.3340152100977172 -3.2370279793841314 L -0.9563320220982232 -2.923263084116132 L -1.028348989145516 -3.407521854255929 L -0.8222426230177462 -3.5224834384551986 M 0.1555018034958991 -3.288923341488485 Q 0.12881798004672645 -3.234937476985512 0.07106611632412768 -3.200336577624854 Q 0.013314252601528964 -3.165735678264196 -0.07256553185220743 -3.161190062554551 L -0.16942993989886362 -3.156063030882044 L -0.15685021270240362 -2.9183957204170525 L -0.35257623308533775 -2.908035945078791 L -0.3898397107051037 -3.6120504571704677 L -0.09724928227551338 -3.627537264181236 Q -0.012368099966587887 -3.632030023894257 0.04863440754837345 -3.6052168913490457 Q 0.10963691506333478 -3.5784037588038338 0.1423963472287218 -3.52706352502757 Q 0.1751557793941088 -3.4757232912513065 0.17880284316114975 -3.406819743259355 Q 0.18218562694507173 -3.3429092059914582 0.1555018034958991 -3.288923341488485 M -0.02091758580102787 -3.396248543934599 Q -0.024987497541059056 -3.4731409090850374 -0.1078714755603628 -3.4687538613652635 L -0.1857624428556121 -3.4646310936286087 L -0.17767547537217354 -3.3118449654725426 L -0.09978450807692424 -3.3159677332091975 Q -0.01690053005762049 -3.3203547809289713 -0.02091758580102787 -3.396248543934599 M 1.1248164947285657 -3.3804847167588292 L 0.7324514565540496 -3.0077721239767894 L 0.6587996076856385 -2.7962268447615237 L 0.4727530898043557 -2.8610010154181174 L 0.5464049386727667 -3.072546294633383 L 0.4703482871563375 -3.608345124195476 L 0.6818935663716033 -3.534693275327065 L 0.7095646008826976 -3.2370453056563715 L 0.916104411217076 -3.4531501569370384 L 1.1248164947285657 -3.3804847167588292 M 1.1825299996918965 -2.6531349714773955 L 1.352704056829977 -2.5152879900916383 L 1.258288316154801 -2.3987304167093915 L 0.9358123631305842 -2.6599472992440454 L 1.3795663443039121 -3.2077678941406065 L 1.531868240190048 -3.0843979929917094 L 1.1825299996918965 -2.6531349714773955 M 1.4381978131944684 -2.234525901498474 Q 1.4373881326533318 -2.329660513587983 1.4849524377353664 -2.4127034957241222 Q 1.532516742817401 -2.4957464778602616 1.6228121557669606 -2.5473482065160775 Q 1.7131075687165205 -2.598949935171894 1.8088004091794603 -2.5977750802300785 Q 1.9044932496424005 -2.5966002252882627 1.9856137542011745 -2.54736138147436 Q 2.0667342587599484 -2.498122537660457 2.1158551350765427 -2.412168250333472 Q 2.1654721818609812 -2.3253457378819724 2.1664678897304532 -2.2308933235886435 Q 2.1674635975999252 -2.136440909295314 2.1196512072839684 -2.0538320397214322 Q 2.071838816968012 -1.9712231701475509 1.9815434040184519 -1.9196214414917345 Q 1.8912479910688922 -1.8680197128359184 1.7958032358398743 -1.8687604552154764 Q 1.7003584806108565 -1.8695011975950342 1.6188038634898252 -1.9184919561750151 Q 1.5372492463687937 -1.967482714754996 1.4881283700521994 -2.0534370020819805 Q 1.4390074937356052 -2.1393912894089655 1.4381978131944684 -2.234525901498474 M 1.7474845742547236 -2.0651677028990068 Q 1.8116110207071894 -2.0517122629069795 1.882805480917419 -2.092398241270219 Q 1.955736391376679 -2.1340765605691474 1.9762618945644255 -2.1959086211760024 Q 1.996787397752172 -2.257740681782858 1.9595746126638431 -2.3228575661214825 Q 1.9218656571076698 -2.3888426755846224 1.8584214084513837 -2.4021120882483147 Q 1.7949771597950976 -2.4153815009120065 1.722046249335838 -2.3737031816130783 Q 1.6499835640010931 -2.3325210327819943 1.6292099755794243 -2.2711230847373964 Q 1.6084363871577556 -2.209725136692799 1.646145342713929 -2.143740027229659 Q 1.6833581278022578 -2.0786231428910344 1.7474845742547236 -2.0651677028990068 M 1.7402763223821265 -1.5885948598661652 Q 1.7896718105778882 -1.6735850695723566 1.8973377536155 -1.6916140659343748 L 1.920473230124183 -1.4838985158984754 Q 1.8840327089672344 -1.476821198764844 1.8692404108957257 -1.4560561339259461 Q 1.854448112824217 -1.435291069087048 1.8577689946197218 -1.4054754398952922 Q 1.8607577882356758 -1.3786413736227119 1.8761120024193438 -1.3627433200688315 Q 1.8914662166030116 -1.3468452665149508 1.9153187199564163 -1.3495019719513546 Q 1.9461282034545642 -1.3529335498067094 1.9598135409275712 -1.383637157709526 Q 1.9734988784005785 -1.4143407656123428 1.9871745749445473 -1.4812659127846672 Q 2.0023951958618995 -1.5523878693022592 2.019058480905693 -1.597006642610692 Q 2.035721765949486 -1.6416254159191244 2.0734797937794687 -1.6775257130542496 Q 2.111237821609451 -1.7134260101893748 2.177826060137706 -1.7208426461993351 Q 2.2454081529723524 -1.7283699782691457 2.297373752867263 -1.699947690754555 Q 2.3493393527621738 -1.6715254032399642 2.3808274740129796 -1.6146615463527065 Q 2.412315595263786 -1.5577976894654486 2.420728495812398 -1.482264762179667 Q 2.4343441111739668 -1.360020682493468 2.385333648955421 -1.280607367532282 Q 2.3363231867368754 -1.201194052571096 2.2335158191713727 -1.1847123908147206 L 2.2099375584232894 -1.3964033580761872 Q 2.241630200167979 -1.4009394862977842 2.2554839919630205 -1.421096927923636 Q 2.2693377837580626 -1.4412543695494882 2.266127598022408 -1.470076144434852 Q 2.2636922847057046 -1.491940939175473 2.249222433884708 -1.5044158506869072 Q 2.234752583063712 -1.5168907621983412 2.2109000797103073 -1.5142340567619375 Q 2.19102299358247 -1.5120201355649343 2.1783278950674654 -1.495010300948033 Q 2.165632796552461 -1.4780004663311321 2.1577433357118996 -1.4539795086556926 Q 2.1498538748713387 -1.429958550980253 2.138933528662326 -1.3834639702350167 Q 2.1234915156252736 -1.3143297223302084 2.105945072334938 -1.2686063986555338 Q 2.0883986290446033 -1.2228830749808592 2.051634455521013 -1.1870934739055843 Q 2.014870281997422 -1.151303872830309 1.9532513150011268 -1.1444407171195996 Q 1.8906384936984395 -1.1374668653490396 1.8374588524935664 -1.1632384730078755 Q 1.7842792112886934 -1.1890100806667114 1.748871020842245 -1.2449342261613727 Q 1.7134628303957966 -1.300858371656034 1.704496449547934 -1.3813605704737748 Q 1.6908808341863648 -1.503604650159974 1.7402763223821265 -1.5885948598661652" fill="#404040" fill-rule="nonzero"></path></g><g transform="matrix(1,0,0,1,0,0)"><path d=" M -1.6405146484375 0.2929999999999999 L -1.7715146484375 0.2929999999999999 L -1.7925146484375 0.3549999999999999 L -1.8820146484375 0.3549999999999999 L -1.7550146484375 0.0039999999999998925 L -1.6560146484375 0.0039999999999998925 L -1.5290146484375 0.3549999999999999 L -1.6195146484375 0.3549999999999999 L -1.6405146484375 0.2929999999999999 M -1.6625146484375 0.22699999999999992 L -1.7060146484375 0.09849999999999992 L -1.7490146484375 0.22699999999999992 L -1.6625146484375 0.22699999999999992 M -1.311514892578125 0.3549999999999999 L -1.384514892578125 0.22249999999999992 L -1.405014892578125 0.22249999999999992 L -1.405014892578125 0.3549999999999999 L -1.490514892578125 0.3549999999999999 L -1.490514892578125 0.0039999999999998925 L -1.347014892578125 0.0039999999999998925 Q -1.305514892578125 0.0039999999999998925 -1.276264892578125 0.018499999999999905 Q -1.247014892578125 0.03299999999999992 -1.232514892578125 0.05824999999999991 Q -1.218014892578125 0.08349999999999991 -1.218014892578125 0.11449999999999994 Q -1.218014892578125 0.1494999999999999 -1.237764892578125 0.17699999999999994 Q -1.257514892578125 0.20449999999999993 -1.296014892578125 0.21599999999999991 L -1.215014892578125 0.3549999999999999 L -1.311514892578125 0.3549999999999999 M -1.405014892578125 0.16199999999999992 L -1.352014892578125 0.16199999999999992 Q -1.328514892578125 0.16199999999999992 -1.316764892578125 0.1504999999999999 Q -1.305014892578125 0.13899999999999993 -1.305014892578125 0.11799999999999991 Q -1.305014892578125 0.09799999999999992 -1.316764892578125 0.08649999999999991 Q -1.328514892578125 0.0749999999999999 -1.352014892578125 0.0749999999999999 L -1.405014892578125 0.0749999999999999 L -1.405014892578125 0.16199999999999992 M -1.156526123046875 0.08624999999999994 Q -1.134026123046875 0.04549999999999993 -1.093776123046875 0.022749999999999937 Q -1.053526123046875 -5.551115123125783e-17 -1.002526123046875 -5.551115123125783e-17 Q -0.9400261230468749 -5.551115123125783e-17 -0.895526123046875 0.03299999999999992 Q -0.851026123046875 0.06599999999999995 -0.8360261230468751 0.12299999999999991 L -0.9300261230468749 0.12299999999999991 Q -0.940526123046875 0.10099999999999992 -0.959776123046875 0.08949999999999991 Q -0.979026123046875 0.0779999999999999 -1.003526123046875 0.0779999999999999 Q -1.043026123046875 0.0779999999999999 -1.0675261230468749 0.10549999999999993 Q -1.092026123046875 0.13299999999999992 -1.092026123046875 0.17899999999999994 Q -1.092026123046875 0.22499999999999992 -1.0675261230468749 0.25249999999999995 Q -1.043026123046875 0.2799999999999999 -1.003526123046875 0.2799999999999999 Q -0.979026123046875 0.2799999999999999 -0.959776123046875 0.2684999999999999 Q -0.940526123046875 0.2569999999999999 -0.9300261230468749 0.23499999999999993 L -0.8360261230468751 0.23499999999999993 Q -0.851026123046875 0.2919999999999999 -0.895526123046875 0.3247499999999999 Q -0.9400261230468749 0.35749999999999993 -1.002526123046875 0.35749999999999993 Q -1.053526123046875 0.35749999999999993 -1.093776123046875 0.33474999999999994 Q -1.134026123046875 0.31199999999999994 -1.156526123046875 0.2714999999999999 Q -1.179026123046875 0.23099999999999993 -1.179026123046875 0.17899999999999994 Q -1.179026123046875 0.12699999999999992 -1.156526123046875 0.08624999999999994 M -0.47951416015625 0.0039999999999998925 L -0.47951416015625 0.3549999999999999 L -0.56501416015625 0.3549999999999999 L -0.56501416015625 0.21049999999999994 L -0.69801416015625 0.21049999999999994 L -0.69801416015625 0.3549999999999999 L -0.78351416015625 0.3549999999999999 L -0.78351416015625 0.0039999999999998925 L -0.69801416015625 0.0039999999999998925 L -0.69801416015625 0.14149999999999993 L -0.56501416015625 0.14149999999999993 L -0.56501416015625 0.0039999999999998925 L -0.47951416015625 0.0039999999999998925 M -0.33250512695312495 0.0039999999999998925 L -0.33250512695312495 0.3549999999999999 L -0.418005126953125 0.3549999999999999 L -0.418005126953125 0.0039999999999998925 L -0.33250512695312495 0.0039999999999998925 M -0.018013671874999915 0.0039999999999998925 L -0.018013671874999915 0.0724999999999999 L -0.11101367187499994 0.0724999999999999 L -0.11101367187499994 0.3549999999999999 L -0.19651367187499996 0.3549999999999999 L -0.19651367187499996 0.0724999999999999 L -0.28951367187499993 0.0724999999999999 L -0.28951367187499993 0.0039999999999998925 L -0.018013671874999915 0.0039999999999998925 M 0.11048803710937506 0.0724999999999999 L 0.11048803710937506 0.14349999999999993 L 0.22498803710937507 0.14349999999999993 L 0.22498803710937507 0.20949999999999994 L 0.11048803710937506 0.20949999999999994 L 0.11048803710937506 0.2864999999999999 L 0.23998803710937505 0.2864999999999999 L 0.23998803710937505 0.3549999999999999 L 0.024988037109375055 0.3549999999999999 L 0.024988037109375055 0.0039999999999998925 L 0.23998803710937505 0.0039999999999998925 L 0.23998803710937505 0.0724999999999999 L 0.11048803710937506 0.0724999999999999 M 0.30349584960937503 0.08624999999999994 Q 0.32599584960937505 0.04549999999999993 0.36624584960937506 0.022749999999999937 Q 0.40649584960937507 -5.551115123125783e-17 0.45749584960937506 -5.551115123125783e-17 Q 0.5199958496093751 -5.551115123125783e-17 0.564495849609375 0.03299999999999992 Q 0.608995849609375 0.06599999999999995 0.623995849609375 0.12299999999999991 L 0.5299958496093751 0.12299999999999991 Q 0.5194958496093751 0.10099999999999992 0.5002458496093751 0.08949999999999991 Q 0.480995849609375 0.0779999999999999 0.45649584960937506 0.0779999999999999 Q 0.4169958496093751 0.0779999999999999 0.39249584960937506 0.10549999999999993 Q 0.36799584960937504 0.13299999999999992 0.36799584960937504 0.17899999999999994 Q 0.36799584960937504 0.22499999999999992 0.39249584960937506 0.25249999999999995 Q 0.4169958496093751 0.2799999999999999 0.45649584960937506 0.2799999999999999 Q 0.480995849609375 0.2799999999999999 0.5002458496093751 0.2684999999999999 Q 0.5194958496093751 0.2569999999999999 0.5299958496093751 0.23499999999999993 L 0.623995849609375 0.23499999999999993 Q 0.608995849609375 0.2919999999999999 0.564495849609375 0.3247499999999999 Q 0.5199958496093751 0.35749999999999993 0.45749584960937506 0.35749999999999993 Q 0.40649584960937507 0.35749999999999993 0.36624584960937506 0.33474999999999994 Q 0.32599584960937505 0.31199999999999994 0.30349584960937503 0.2714999999999999 Q 0.28099584960937507 0.23099999999999993 0.28099584960937507 0.17899999999999994 Q 0.28099584960937507 0.12699999999999992 0.30349584960937503 0.08624999999999994 M 0.9290078125000001 0.0039999999999998925 L 0.9290078125000001 0.0724999999999999 L 0.8360078125 0.0724999999999999 L 0.8360078125 0.3549999999999999 L 0.7505078125 0.3549999999999999 L 0.7505078125 0.0724999999999999 L 0.6575078125 0.0724999999999999 L 0.6575078125 0.0039999999999998925 L 0.9290078125000001 0.0039999999999998925 M 1.056009521484375 0.0039999999999998925 L 1.056009521484375 0.2139999999999999 Q 1.056009521484375 0.24549999999999994 1.071509521484375 0.26249999999999996 Q 1.087009521484375 0.2794999999999999 1.117009521484375 0.2794999999999999 Q 1.147009521484375 0.2794999999999999 1.163009521484375 0.26249999999999996 Q 1.179009521484375 0.24549999999999994 1.179009521484375 0.2139999999999999 L 1.179009521484375 0.0039999999999998925 L 1.2645095214843751 0.0039999999999998925 L 1.2645095214843751 0.2134999999999999 Q 1.2645095214843751 0.26049999999999995 1.244509521484375 0.2929999999999999 Q 1.224509521484375 0.3254999999999999 1.190759521484375 0.3419999999999999 Q 1.157009521484375 0.35849999999999993 1.115509521484375 0.35849999999999993 Q 1.074009521484375 0.35849999999999993 1.041259521484375 0.34224999999999994 Q 1.008509521484375 0.3259999999999999 0.989509521484375 0.2932499999999999 Q 0.970509521484375 0.26049999999999995 0.970509521484375 0.2134999999999999 L 0.970509521484375 0.0039999999999998925 L 1.056009521484375 0.0039999999999998925 M 1.50351806640625 0.3549999999999999 L 1.43051806640625 0.22249999999999992 L 1.41001806640625 0.22249999999999992 L 1.41001806640625 0.3549999999999999 L 1.32451806640625 0.3549999999999999 L 1.32451806640625 0.0039999999999998925 L 1.46801806640625 0.0039999999999998925 Q 1.50951806640625 0.0039999999999998925 1.53876806640625 0.018499999999999905 Q 1.56801806640625 0.03299999999999992 1.58251806640625 0.05824999999999991 Q 1.59701806640625 0.08349999999999991 1.59701806640625 0.11449999999999994 Q 1.59701806640625 0.1494999999999999 1.57726806640625 0.17699999999999994 Q 1.55751806640625 0.20449999999999993 1.51901806640625 0.21599999999999991 L 1.60001806640625 0.3549999999999999 L 1.50351806640625 0.3549999999999999 M 1.41001806640625 0.16199999999999992 L 1.46301806640625 0.16199999999999992 Q 1.48651806640625 0.16199999999999992 1.49826806640625 0.1504999999999999 Q 1.51001806640625 0.13899999999999993 1.51001806640625 0.11799999999999991 Q 1.51001806640625 0.09799999999999992 1.49826806640625 0.08649999999999991 Q 1.48651806640625 0.0749999999999999 1.46301806640625 0.0749999999999999 L 1.41001806640625 0.0749999999999999 L 1.41001806640625 0.16199999999999992 M 1.7360068359375 0.0724999999999999 L 1.7360068359375 0.14349999999999993 L 1.8505068359375 0.14349999999999993 L 1.8505068359375 0.20949999999999994 L 1.7360068359375 0.20949999999999994 L 1.7360068359375 0.2864999999999999 L 1.8655068359375 0.2864999999999999 L 1.8655068359375 0.3549999999999999 L 1.6505068359375 0.3549999999999999 L 1.6505068359375 0.0039999999999998925 L 1.8655068359375 0.0039999999999998925 L 1.8655068359375 0.0724999999999999 L 1.7360068359375 0.0724999999999999" fill="#4e888f" fill-rule="nonzero"></path></g><g transform="matrix(1,0,0,1,0,0)"><g transform="matrix(1,0,0,1,0,0)" clip-path="url(#SvgjsClipPath106828)"><g clip-path="url(#SvgjsClipPath1068261bf4dbd3-a45c-4fd3-a3db-8de7eadfac18)"><path d=" M 0.17025187176505185 -2.0787124369563794 L 0.17025187176505185 -0.4935685972262942 L 0.05213854262591422 -0.4935685972262942 L 0.05213854262591422 -2.1535680710208673 L -0.05217740847953012 -2.219678888021747 L -1.3155897119760576 -1.4188479742632962 L -1.3155897119760576 -0.37545526808715657 L -0.9618715782165013 -0.37545526808715657 L -0.9613663221194928 -1.2237413891107887 L -0.406400798336095 -1.574505717995526 L -0.406400798336095 -1.7142673275987965 L -1.0794407854050143 -1.2887250963568033 L -1.0794407854050143 -0.4935685972262942 L -1.197515248690536 -0.4935685972262942 L -1.197515248690536 -1.3537865353100498 L -0.28832633505057337 -1.9285736444376267 L -0.28832633505057337 -0.37545526808715657 L -0.17025187176505163 -0.37545526808715657 L -0.17025187176505163 -2.0031960833804185 L -0.05217740847953012 -2.0778962540304424 L -0.05217740847953012 -0.37545526808715657 L 0.2883652009041895 -0.37545526808715657 L 0.2883652009041895 -1.8625405591439792 L 1.197515248690536 -1.2876757183091703 L 1.197515248690536 -0.4935685972262942 L 1.0794407854050145 -0.4935685972262942 L 1.0794407854050145 -1.2226920110631556 L 0.4064007983360949 -1.6480787788906848 L 0.4064007983360949 -1.5083949009946467 L 0.961366322119493 -1.157552840402677 L 0.961871578216501 -0.37545526808715657 L 1.3156285778296735 -0.37545526808715657 L 1.3156285778296735 -1.3526982914088008 L 0.17025187176505185 -2.0787124369563794 Z" fill="url(#gradient-4d2586ed-ac10-418f-8835-23524c706b1a_0)" transform="matrix(1,0,0,1,0,0)" fill-rule="nonzero"></path></g><g clip-path="url(#SvgjsClipPath1068261bf4dbd3-a45c-4fd3-a3db-8de7eadfac18)"><path d=" M -1.388657516774208 -0.3009882925588292 L 1.388657516774208 -0.3009882925588292 L 1.388657516774208 -0.1875 L -1.388657516774208 -0.1875 Z" fill="url(#gradient-4d2586ed-ac10-418f-8835-23524c706b1a_1)" transform="matrix(1,0,0,1,0,0)" fill-rule="nonzero"></path></g></g></g></g><defs><clipPath id="SvgjsClipPath106828"><path d=" M -1.388657516774208 -2.219678888021747 h 2.777315033548416 v 2.032178888021747 h -2.777315033548416 Z"></path></clipPath><clipPath id="SvgjsClipPath1068261bf4dbd3-a45c-4fd3-a3db-8de7eadfac18"><path d=" M -1.388657516774208 -2.219678888021747 L 1.388657516774208 -2.219678888021747 L 1.388657516774208 -0.1875 L -1.388657516774208 -0.1875 Z"></path></clipPath><linearGradient id="gradient-4d2586ed-ac10-418f-8835-23524c706b1a_0" x1="0" x2="1" y1="0" y2="1"><stop stop-color="#4e878e" offset="0"></stop><stop stop-color="#414445" offset="1"></stop></linearGradient><linearGradient id="gradient-4d2586ed-ac10-418f-8835-23524c706b1a_1" x1="0" x2="1" y1="0" y2="1"><stop stop-color="#47666a" offset="0"></stop><stop stop-color="#404040" offset="1"></stop></linearGradient></defs></svg>